<svg width="180" height="180" viewBox="0 0 180 180" fill="none" xmlns="http://www.w3.org/2000/svg">
<path d="M149.302 53.8813C148.123 52.3799 146.861 50.9542 145.523 49.6165C142.664 46.7567 139.442 44.2673 135.937 42.2092V17.0875L149.302 3.72272V53.8813Z" fill="white"/>
<path d="M147.76 7.44591V49.7122C147.384 49.31 147.002 48.9147 146.614 48.5264C143.869 45.7817 140.803 43.3684 137.48 41.3354V17.7265L147.76 7.44591ZM150.844 0L134.395 16.449V43.101C137.989 45.1219 141.375 47.6488 144.433 50.7073C146.916 53.1903 149.045 55.8917 150.844 58.7412V0Z" fill="white"/>
<path d="M74.2535 112.843C75.4312 114.344 76.6932 115.769 78.0325 117.108C80.8908 119.967 84.1125 122.456 87.6183 124.516V162.912L74.2535 176.277V112.843Z" fill="white"/>
<path d="M75.7959 117.013C76.1716 117.415 76.5537 117.81 76.9419 118.199C79.6865 120.943 82.7529 123.356 86.0765 125.39V162.274L75.7959 172.554V117.013ZM72.7117 107.984V180L89.1607 163.551V123.624C85.5671 121.603 82.1811 119.076 79.1227 116.018C76.6396 113.535 74.5111 110.833 72.7117 107.984Z" fill="white"/>
<path d="M144.433 116.018L144.433 116.017L144.433 116.018L144.433 116.018Z" fill="white"/>
<path d="M144.433 116.017L144.433 116.018L144.433 116.018L144.433 116.017Z" fill="white"/>
<path d="M79.1227 50.7073L79.1223 50.7078L79.1232 50.7068L79.1227 50.7073Z" fill="white"/>
<path d="M79.1232 50.7068C79.123 50.7069 79.1234 50.7065 79.1232 50.7068V50.7068Z" fill="white"/>
<path d="M76.2585 79.7364C74.9273 75.8505 74.2536 71.799 74.2536 67.6502V59.1913C75.9844 56.5087 77.9873 54.0233 80.2121 51.7981C82.458 49.5527 84.9418 47.5523 87.6184 45.829V66.7747C82.9429 70.2479 79.0686 74.6749 76.2585 79.7364Z" fill="white"/>
<path d="M86.0765 48.77V66.0084C82.4465 68.8096 79.3036 72.1729 76.766 75.9542C76.1209 73.249 75.7959 70.4733 75.7959 67.6502L75.7959 59.6499C77.4101 57.2032 79.2599 54.9318 81.304 52.8876C82.7909 51.4007 84.3863 50.0247 86.0765 48.77ZM89.1607 43.1008C85.5673 45.1218 82.1815 47.6485 79.1232 50.7067L79.1222 50.7077C76.6393 53.1907 74.5109 55.8918 72.7117 58.7412L72.7117 67.6502C72.7117 73.298 73.9262 78.6644 76.0921 83.5166C78.9562 77.1004 83.4981 71.5962 89.1607 67.5601V43.1008Z" fill="white"/>
<path d="M147.297 79.7369C144.487 74.6754 140.613 70.2479 135.937 66.7747V45.829C138.615 47.5523 141.098 49.5527 143.342 51.7976C145.567 54.0218 147.57 56.5072 149.302 59.1913V67.6502C149.302 71.8006 148.628 75.8526 147.297 79.7369Z" fill="white"/>
<path d="M137.48 48.77C139.17 50.025 140.765 51.401 142.252 52.8881C144.296 54.9314 146.146 57.2029 147.76 59.6499V67.6502C147.76 70.4733 147.435 73.249 146.79 75.9542C144.252 72.1729 141.11 68.8095 137.48 66.0084V48.77ZM134.395 43.101V67.5601C140.058 71.5962 144.6 77.1004 147.464 83.5166C149.63 78.6644 150.844 73.298 150.844 67.6502V58.7412C149.045 55.8917 146.916 53.1903 144.433 50.7072C141.375 47.6488 137.989 45.1219 134.395 43.101Z" fill="white"/>
<path d="M111.778 105.174C104.22 105.174 96.9563 102.931 90.7166 98.6783C90.8913 93.8427 92.6553 89.3338 95.7535 85.7141C100.181 89.6566 105.812 91.8096 111.778 91.8096C117.743 91.8096 123.375 89.6561 127.803 85.7141C130.917 89.3519 132.683 93.8828 132.841 98.6762C126.601 102.93 119.337 105.174 111.778 105.174Z" fill="white"/>
<path d="M127.577 87.9117C129.708 90.8302 130.978 94.2607 131.254 97.8801C125.435 101.649 118.736 103.632 111.778 103.632C104.82 103.632 98.1212 101.649 92.302 97.88C92.5779 94.2605 93.8477 90.8302 95.9791 87.9117C100.478 91.4403 105.979 93.3517 111.778 93.3517C117.577 93.3517 123.078 91.4403 127.577 87.9117ZM127.877 83.5166C123.773 87.6803 118.073 90.2675 111.778 90.2675C105.483 90.2675 99.7835 87.6803 95.6792 83.5166C91.6519 87.6024 89.1607 93.2064 89.1607 99.383V99.473C95.5489 104.027 103.353 106.716 111.778 106.716C120.203 106.716 128.007 104.027 134.395 99.4731V99.383C134.395 93.2064 131.904 87.6024 127.877 83.5166Z" fill="white"/>
<path d="M135.937 100.258C140.613 96.7852 144.487 92.3582 147.297 87.2968C148.628 91.1811 149.302 95.2331 149.302 99.383V107.533C147.571 110.216 145.568 112.702 143.343 114.927C141.099 117.172 138.616 119.172 135.937 120.896V100.258Z" fill="white"/>
<path d="M146.79 91.0788C147.435 93.784 147.76 96.5599 147.76 99.383L147.76 107.075C146.146 109.522 144.296 111.793 142.252 113.837C140.765 115.324 139.17 116.7 137.48 117.955V101.025C141.11 98.2234 144.252 94.8602 146.79 91.0788ZM147.464 83.5166C144.6 89.9327 140.058 95.4367 134.395 99.4731V123.624C137.989 121.603 141.375 119.076 144.433 116.018C146.916 113.535 149.045 110.833 150.844 107.984L150.844 99.383C150.844 93.7352 149.63 88.3688 147.464 83.5166Z" fill="white"/>
<path d="M87.6183 120.896C84.9397 119.171 82.4569 117.171 80.2131 114.927C77.9863 112.7 75.9824 110.214 74.2535 107.533V99.383C74.2535 95.2341 74.9272 91.1826 76.2585 87.2973C79.0686 92.3588 82.9429 96.7853 87.6183 100.258V120.896Z" fill="white"/>
<path d="M76.766 91.0788C79.3036 94.86 82.4465 98.2233 86.0765 101.024V117.955C84.386 116.7 82.7907 115.324 81.3036 113.837C79.2601 111.793 77.4102 109.522 75.7959 107.075V99.383C75.7959 96.5599 76.1209 93.784 76.766 91.0788ZM76.0921 83.5166C73.9262 88.3688 72.7117 93.7352 72.7117 99.383V107.984C74.5111 110.833 76.6396 113.535 79.1227 116.018C82.1811 119.076 85.5671 121.603 89.1607 123.624V99.473C83.4981 95.4367 78.9562 89.9327 76.0921 83.5166Z" fill="white"/>
<path d="M127.803 81.3197C123.375 77.3766 117.744 75.2236 111.778 75.2236C105.811 75.2236 100.181 77.3766 95.7535 81.3197C92.6382 77.6808 90.8722 73.1494 90.7146 68.3565C96.9542 64.1027 104.219 61.8588 111.778 61.8588C119.336 61.8588 126.599 64.1022 132.839 68.3545C132.664 73.1911 130.901 77.6999 127.803 81.3197Z" fill="white"/>
<path d="M111.778 63.4009C118.736 63.4009 125.435 65.3845 131.254 69.1531C130.978 72.7725 129.708 76.2028 127.577 79.1214C123.078 75.5933 117.577 73.6815 111.778 73.6815C105.979 73.6815 100.478 75.5933 95.979 79.1214C93.8477 76.2028 92.5779 72.7725 92.302 69.1531C98.1211 65.3845 104.82 63.4009 111.778 63.4009ZM111.778 60.3167C103.353 60.3167 95.5489 63.0065 89.1607 67.5601V67.6502C89.1607 73.8268 91.6519 79.4307 95.6792 83.5166C99.7835 79.3526 105.483 76.7657 111.778 76.7657C118.073 76.7657 123.773 79.3526 127.877 83.5166C131.904 79.4307 134.395 73.8268 134.395 67.6502V67.5601C128.007 63.0065 120.203 60.3167 111.778 60.3167Z" fill="white"/>
<path d="M87.792 96.4715C83.5513 92.937 80.1298 88.5126 77.7875 83.5168C80.1308 78.5191 83.5543 74.0921 87.7981 70.5566C88.3824 75.3842 90.3763 79.8569 93.5759 83.5168C90.3652 87.1883 88.3683 91.6745 87.792 96.4715Z" fill="white"/>
<path d="M86.7599 73.562C87.6113 77.1783 89.2437 80.5657 91.5714 83.5166C89.2437 86.4674 87.6114 89.8546 86.7599 93.4709C83.7916 90.5947 81.3311 87.2275 79.4991 83.5166C81.3311 79.8055 83.7916 76.4382 86.7599 73.562ZM89.1607 67.5601C83.4982 71.5962 78.9562 77.1004 76.0921 83.5166C78.9562 89.9327 83.4982 95.4367 89.1607 99.473V99.383C89.1607 93.2063 91.6519 87.6023 95.6792 83.5166C91.6519 79.4307 89.1607 73.8268 89.1607 67.6502V67.5601Z" fill="white"/>
<path d="M135.763 96.471C135.187 91.674 133.19 87.1878 129.981 83.5168C133.19 79.8453 135.187 75.3591 135.763 70.5616C140.004 74.0966 143.426 78.5211 145.768 83.5168C143.426 88.5125 140.004 92.937 135.763 96.471Z" fill="white"/>
<path d="M136.796 73.562C139.764 76.4382 142.225 79.8055 144.057 83.5166C142.225 87.2275 139.764 90.5947 136.796 93.471C135.945 89.8547 134.312 86.4674 131.985 83.5166C134.312 80.5657 135.945 77.1783 136.796 73.562ZM134.395 67.5601V67.6502C134.395 73.8268 131.904 79.4307 127.877 83.5166C131.904 87.6023 134.395 93.2063 134.395 99.383V99.4731C140.058 95.4367 144.6 89.9327 147.464 83.5166C144.6 77.1004 140.058 71.5962 134.395 67.5601Z" fill="white"/>
<path d="M90.1887 7.28595C132.137 7.28595 166.265 41.4137 166.265 83.3624C166.265 125.311 132.137 159.439 90.1887 159.439C48.24 159.439 14.1122 125.311 14.1122 83.3624C14.1122 41.4137 48.24 7.28595 90.1887 7.28595ZM90.1887 3.17371C45.9017 3.17371 10 39.0754 10 83.3624C10 127.649 45.9017 163.551 90.1887 163.551C134.476 163.551 170.377 127.649 170.377 83.3624C170.377 39.0754 134.476 3.17371 90.1887 3.17371ZM111.778 26.8191C142.956 26.8191 168.321 52.1843 168.321 83.3624C168.321 114.54 142.956 139.906 111.778 139.906C80.5999 139.906 55.2346 114.54 55.2346 83.3624C55.2346 52.1843 80.5999 26.8191 111.778 26.8191ZM111.778 24.763C79.4144 24.763 53.1785 50.9988 53.1785 83.3624C53.1785 115.726 79.4144 141.962 111.778 141.962C144.142 141.962 170.377 115.726 170.377 83.3624C170.377 50.9988 144.142 24.763 111.778 24.763ZM46.7975 7.32959C41.1197 7.32959 36.5169 11.9324 36.5169 17.6102C36.5169 23.288 41.1197 27.8908 46.7975 27.8908C52.4753 27.8908 57.0781 23.288 57.0781 17.6102C57.0781 11.9324 52.4753 7.32959 46.7975 7.32959ZM85.0484 123.36C79.3706 123.36 74.7678 127.963 74.7678 133.641C74.7678 139.318 79.3706 143.921 85.0484 143.921C90.7262 143.921 95.329 139.318 95.329 133.641C95.329 127.963 90.7262 123.36 85.0484 123.36Z" fill="url(#paint0_linear_2_543)"/>
<path d="M72.7117 155.638V165.435L89.1606 163.551V157.815L72.7117 155.638Z" fill="white"/>
<path d="M134.395 27.3731L150.844 37.4922V44.1002L134.395 37.823V27.3731Z" fill="white"/>
<defs>
<linearGradient id="paint0_linear_2_543" x1="28.3475" y1="21.5212" x2="146.891" y2="140.064" gradientUnits="userSpaceOnUse">
<stop stop-color="#A776D4"/>
<stop offset="0.5" stop-color="#7ED2DD"/>
<stop offset="1" stop-color="#DFDBBD"/>
</linearGradient>
</defs>
</svg>
