<svg width="147" height="48" viewBox="0 0 147 48" fill="none" xmlns="http://www.w3.org/2000/svg">
<g clip-path="url(#clip0_2_603)">
<path d="M42.1346 13.9357H53.0548C54.8351 13.9357 56.269 14.4155 57.3551 15.3741C58.4413 16.3332 58.9844 17.5954 58.9844 19.161V21.2157C58.9844 22.2335 58.6956 23.1193 58.1185 23.8724C57.541 24.626 56.7044 25.1984 55.6087 25.5896V25.6484C56.2346 26.0594 56.7094 26.5292 57.0324 27.0575C57.3551 27.5859 57.6732 28.3196 57.9863 29.259L59.6302 34.4843H55.4325L53.8765 29.6114C53.622 28.7701 53.2698 28.1437 52.8198 27.7327C52.3695 27.3217 51.8118 27.1161 51.1467 27.1161H46.1856V34.4843H42.1346V13.9357ZM52.2914 23.6229C53.1134 23.6229 53.7591 23.4027 54.2289 22.9625C54.6985 22.5221 54.9335 21.9496 54.9335 21.2452V19.3371C54.9335 18.7697 54.7573 18.3147 54.4051 17.972C54.0527 17.6299 53.5832 17.4584 52.996 17.4584H46.1856V23.6229H52.2914Z" fill="white"/>
<path d="M62.3308 13.9357H66.3818V34.4843H62.3308V13.9357Z" fill="white"/>
<path d="M71.4306 32.9138C70.217 31.7103 69.6108 30.0325 69.6108 27.8795H73.6029C73.6029 28.8972 73.8622 29.6949 74.3809 30.2717C74.8991 30.8493 75.6183 31.1379 76.5386 31.1379H79.797C80.6577 31.1379 81.3574 30.957 81.8958 30.5947C82.4338 30.2329 82.703 29.7485 82.703 29.1416V28.1437C82.703 27.1851 81.9984 26.5878 80.5895 26.353L75.1883 25.4431C73.4267 25.1495 72.0912 24.587 71.181 23.755C70.2711 22.9234 69.8161 21.8616 69.8161 20.57V18.9261C69.8161 17.889 70.0949 16.974 70.6527 16.1814C71.2104 15.3888 72.003 14.7774 73.0306 14.3467C74.0579 13.9164 75.2468 13.7009 76.5971 13.7009H79.9144C81.1861 13.7009 82.3113 13.9651 83.2902 14.4935C84.2683 15.0218 85.0265 15.7608 85.5652 16.7099C86.103 17.6592 86.3724 18.76 86.3724 20.0123H82.3802C82.3802 19.1903 82.1548 18.5298 81.7051 18.0308C81.2545 17.5317 80.6577 17.2822 79.9144 17.2822H76.5971C75.7752 17.2822 75.1149 17.4584 74.6157 17.8106C74.1167 18.1629 73.8671 18.6325 73.8671 19.2197V20.0123C73.8671 20.991 74.5423 21.5975 75.8926 21.8322L81.2647 22.7716C83.045 23.0849 84.4057 23.6376 85.3448 24.4302C86.2844 25.2229 86.7539 26.2457 86.7539 27.4977V29.4352C86.7539 30.4726 86.4648 31.3925 85.888 32.1946C85.3107 32.9973 84.5031 33.6184 83.4661 34.0587C82.4287 34.4989 81.2251 34.7191 79.8555 34.7191H76.4798C74.3268 34.7191 72.6438 34.1173 71.4306 32.9138Z" fill="white"/>
<path d="M89.572 13.9357H100.404C101.597 13.9357 102.654 14.166 103.574 14.6255C104.494 15.0856 105.208 15.7411 105.717 16.5923C106.226 17.4437 106.48 18.4174 106.48 19.5131V22.2432C106.48 23.3784 106.216 24.3815 105.688 25.252C105.159 26.1231 104.421 26.7983 103.472 27.2777C102.522 27.7574 101.421 27.9969 100.169 27.9969H93.6229V34.4843H89.572V13.9357ZM100.11 24.4741C100.795 24.4741 101.353 24.2541 101.784 23.8137C102.214 23.3734 102.429 22.7913 102.429 22.0671V19.6893C102.429 19.0045 102.239 18.4615 101.857 18.0601C101.475 17.6592 100.971 17.4584 100.345 17.4584H93.6229V24.4741H100.11Z" fill="white"/>
<path d="M118.809 29.6993H111.118L109.298 34.4843H105.071L113.115 13.9357H114.935C116.206 13.9357 117.067 14.5228 117.518 15.697L124.827 34.4843H120.6L118.809 29.6993ZM112.205 26.2941H117.723L114.993 18.8967H114.964L112.205 26.2941Z" fill="white"/>
<path d="M19.7388 5.48344C30.0646 5.48344 38.4653 13.8841 38.4653 24.2099C38.4653 34.5358 30.0646 42.9365 19.7388 42.9365C9.41292 42.9365 1.01224 34.5358 1.01224 24.2099C1.01224 13.8841 9.41292 5.48344 19.7388 5.48344ZM19.7388 4.47119C8.83734 4.47119 0 13.3085 0 24.2099C0 35.1114 8.83734 43.9487 19.7388 43.9487C30.6402 43.9487 39.4775 35.1114 39.4775 24.2099C39.4775 13.3085 30.6402 4.47119 19.7388 4.47119ZM25.053 10.2916C32.7276 10.2916 38.9714 16.5353 38.9714 24.2099C38.9714 31.8845 32.7276 38.1283 25.053 38.1283C17.3784 38.1283 11.1347 31.8845 11.1347 24.2099C11.1347 16.5353 17.3784 10.2916 25.053 10.2916ZM25.053 9.78547C17.0866 9.78547 10.6286 16.2435 10.6286 24.2099C10.6286 32.1764 17.0866 38.6344 25.053 38.6344C33.0194 38.6344 39.4775 32.1764 39.4775 24.2099C39.4775 16.2435 33.0194 9.78547 25.053 9.78547ZM9.05785 5.49418C7.66023 5.49418 6.52724 6.62717 6.52724 8.02479C6.52724 9.4224 7.66023 10.5554 9.05785 10.5554C10.4555 10.5554 11.5885 9.4224 11.5885 8.02479C11.5885 6.62717 10.4555 5.49418 9.05785 5.49418ZM18.4734 34.0555C17.0758 34.0555 15.9428 35.1885 15.9428 36.5861C15.9428 37.9837 17.0758 39.1167 18.4734 39.1167C19.8711 39.1167 21.0041 37.9837 21.0041 36.5861C21.0041 35.1885 19.8711 34.0555 18.4734 34.0555Z" fill="url(#paint0_linear_2_603)"/>
<path d="M25.0531 13.7079C19.2529 13.7079 14.551 18.4099 14.551 24.21C14.551 30.0101 19.2529 34.712 25.0531 34.712C30.8532 34.712 35.5551 30.0101 35.5551 24.21C35.5551 18.4099 30.8532 13.7079 25.0531 13.7079ZM25.0531 30.663C21.4891 30.663 18.6 27.7739 18.6 24.21C18.6 20.6461 21.4891 17.7569 25.0531 17.7569C28.617 17.7569 31.5061 20.6461 31.5061 24.21C31.5061 27.7739 28.617 30.663 25.0531 30.663Z" fill="white"/>
<path d="M146.73 18.1517V3.69232L142.681 7.7413V14.3018C143.565 14.7993 144.399 15.4213 145.152 16.1741C145.763 16.7853 146.287 17.4503 146.73 18.1517Z" fill="white"/>
<path d="M127.497 30.2729V48L131.546 43.9511V34.1229C130.661 33.6254 129.828 33.0034 129.075 32.2505C128.464 31.6393 127.94 30.9744 127.497 30.2729Z" fill="white"/>
<path d="M145.152 32.2507L145.152 32.2505L145.152 32.251L145.152 32.2507Z" fill="white"/>
<path d="M129.076 16.1744L129.075 16.1749L129.076 16.174L129.076 16.1744Z" fill="white"/>
<path d="M128.329 24.2503C129.034 22.6709 130.152 21.3161 131.546 20.3225V14.3018C130.662 14.7993 129.828 15.4213 129.075 16.174L129.075 16.1743C128.464 16.7855 127.94 17.4504 127.497 18.1518L127.497 20.3447C127.497 21.735 127.796 23.0559 128.329 24.2503Z" fill="white"/>
<path d="M145.898 24.2503C146.431 23.0559 146.73 21.7349 146.73 20.3447V18.1517C146.287 17.4503 145.763 16.7854 145.152 16.1741C144.399 15.4213 143.565 14.7993 142.681 14.3018V20.3225C144.075 21.316 145.193 22.6709 145.898 24.2503Z" fill="white"/>
<path d="M141.076 24.2503C140.066 25.2752 138.663 25.9121 137.113 25.9121C135.564 25.9121 134.161 25.2752 133.151 24.2503C132.159 25.256 131.546 26.6355 131.546 28.1559V28.178C133.119 29.2989 135.04 29.961 137.113 29.961C139.187 29.961 141.108 29.2989 142.681 28.1781V28.1559C142.681 26.6355 142.068 25.256 141.076 24.2503Z" fill="white"/>
<path d="M146.73 28.1559C146.73 26.7657 146.431 25.4447 145.898 24.2503C145.193 25.8297 144.075 27.1845 142.681 28.1781V34.1229C143.565 33.6254 144.399 33.0034 145.152 32.2506C145.763 31.6394 146.287 30.9743 146.73 30.273L146.73 28.1559Z" fill="white"/>
<path d="M128.329 24.2503C127.796 25.4447 127.497 26.7657 127.497 28.1559V30.273C127.94 30.9744 128.464 31.6393 129.075 32.2506C129.828 33.0034 130.661 33.6254 131.546 34.1229V28.178C130.152 27.1845 129.034 25.8297 128.329 24.2503Z" fill="white"/>
<path d="M133.151 24.2503C134.161 23.2253 135.564 22.5885 137.113 22.5885C138.663 22.5885 140.066 23.2253 141.076 24.2503C142.068 23.2445 142.681 21.8651 142.681 20.3447V20.3225C141.108 19.2016 139.187 18.5396 137.113 18.5396C135.04 18.5396 133.119 19.2016 131.546 20.3225V20.3447C131.546 21.8651 132.159 23.2445 133.151 24.2503Z" fill="white"/>
<path d="M133.151 24.2502C132.159 23.2444 131.546 21.865 131.546 20.3446V20.3224C130.152 21.316 129.034 22.6708 128.329 24.2502C129.034 25.8296 130.152 27.1844 131.546 28.1779V28.1558C131.546 26.6354 132.159 25.2559 133.151 24.2502Z" fill="white"/>
<path d="M142.681 20.3224V20.3446C142.681 21.865 142.068 23.2444 141.076 24.2502C142.068 25.2559 142.681 26.6354 142.681 28.1558V28.178C144.075 27.1844 145.193 25.8296 145.898 24.2502C145.193 22.6708 144.075 21.316 142.681 20.3224Z" fill="white"/>
</g>
<defs>
<linearGradient id="paint0_linear_2_603" x1="4.51631" y1="8.9875" x2="33.6962" y2="38.1673" gradientUnits="userSpaceOnUse">
<stop stop-color="#A776D4"/>
<stop offset="0.5" stop-color="#7ED2DD"/>
<stop offset="1" stop-color="#DFDBBD"/>
</linearGradient>
<clipPath id="clip0_2_603">
<rect width="146.769" height="48" fill="white"/>
</clipPath>
</defs>
</svg>
